<mxfile host="65bd71144e">
    <diagram id="HIP3nbAZw_EuaXWnEj3U" name="Page-1">
        <mxGraphModel dx="1086" dy="743" grid="1" gridSize="10" guides="1" tooltips="1" connect="1" arrows="1" fold="1" page="1" pageScale="1" pageWidth="850" pageHeight="1100" math="0" shadow="0">
            <root>
                <mxCell id="0"/>
                <mxCell id="1" parent="0"/>
                <mxCell id="7" value="http://ics2o.mths.ca" style="swimlane;whiteSpace=wrap;html=1;" parent="1" vertex="1">
                    <mxGeometry x="40" y="40" width="930" height="480" as="geometry"/>
                </mxCell>
                <mxCell id="8" value="Volume of a pyramid with Js" style="text;html=1;align=center;verticalAlign=middle;resizable=0;points=[];autosize=1;strokeColor=none;fillColor=none;" vertex="1" parent="7">
                    <mxGeometry x="30" y="80" width="170" height="30" as="geometry"/>
                </mxCell>
                <mxCell id="9" value="" style="rounded=1;whiteSpace=wrap;html=1;" vertex="1" parent="7">
                    <mxGeometry x="70" y="190" width="160" height="20" as="geometry"/>
                </mxCell>
                <mxCell id="11" value="" style="rounded=1;whiteSpace=wrap;html=1;" vertex="1" parent="7">
                    <mxGeometry x="70" y="250" width="160" height="20" as="geometry"/>
                </mxCell>
                <mxCell id="10" value="" style="rounded=1;whiteSpace=wrap;html=1;" vertex="1" parent="7">
                    <mxGeometry x="70" y="220" width="160" height="20" as="geometry"/>
                </mxCell>
                <mxCell id="16" value="Height:" style="text;html=1;align=center;verticalAlign=middle;resizable=0;points=[];autosize=1;strokeColor=none;fillColor=none;" vertex="1" parent="7">
                    <mxGeometry x="10" y="245" width="60" height="30" as="geometry"/>
                </mxCell>
                <mxCell id="15" value="Width:" style="text;html=1;align=center;verticalAlign=middle;resizable=0;points=[];autosize=1;strokeColor=none;fillColor=none;" vertex="1" parent="7">
                    <mxGeometry x="10" y="215" width="60" height="30" as="geometry"/>
                </mxCell>
                <mxCell id="14" value="Length:" style="text;html=1;align=center;verticalAlign=middle;resizable=0;points=[];autosize=1;strokeColor=none;fillColor=none;" vertex="1" parent="7">
                    <mxGeometry x="10" y="185" width="60" height="30" as="geometry"/>
                </mxCell>
                <mxCell id="17" value="Calculate" style="rounded=1;whiteSpace=wrap;html=1;" vertex="1" parent="7">
                    <mxGeometry x="10" y="290" width="60" height="20" as="geometry"/>
                </mxCell>
                <mxCell id="19" value="Output:" style="text;html=1;align=center;verticalAlign=middle;resizable=0;points=[];autosize=1;strokeColor=none;fillColor=none;" vertex="1" parent="7">
                    <mxGeometry x="30" y="330" width="60" height="30" as="geometry"/>
                </mxCell>
                <mxCell id="20" value="" style="shape=image;verticalLabelPosition=bottom;labelBackgroundColor=default;verticalAlign=top;aspect=fixed;imageAspect=0;image=data:image/jpeg,/9j/4AAQSkZJRgABAQAAAQABAAD/4gHYSUNDX1BST0ZJTEUAAQEAAAHIAAAAAAQwAABtbnRyUkdCIFhZWiAAAAAAAAAAAAAAAABhY3NwAAAAAAAAAAAAAAAAAAAAAAAAAAAAAAAAAAAAAQAA9tYAAQAAAADTLQAAAAAAAAAAAAAAAAAAAAAAAAAAAAAAAAAAAAAAAAAAAAAAAAAAAAAAAAAAAAAAAAAAAAlkZXNjAAAA8AAAACRyWFlaAAABFAAAABRnWFlaAAABKAAAABRiWFlaAAABPAAAABR3dHB0AAABUAAAABRyVFJDAAABZAAAAChnVFJDAAABZAAAAChiVFJDAAABZAAAAChjcHJ0AAABjAAAADxtbHVjAAAAAAAAAAEAAAAMZW5VUwAAAAgAAAAcAHMAUgBHAEJYWVogAAAAAAAAb6IAADj1AAADkFhZWiAAAAAAAABimQAAt4UAABjaWFlaIAAAAAAAACSgAAAPhAAAts9YWVogAAAAAAAA9tYAAQAAAADTLXBhcmEAAAAAAAQAAAACZmYAAPKnAAANWQAAE9AAAApbAAAAAAAAAABtbHVjAAAAAAAAAAEAAAAMZW5VUwAAACAAAAAcAEcAbwBvAGcAbABlACAASQBuAGMALgAgADIAMAAxADb/2wBDAAEBAQEBAQEBAQEBAQEBAQEBAQEBAQEBAQEBAQEBAQEBAQEBAQEBAQEBAQEBAQEBAQEBAQEBAQEBAQEBAQEBAQH/2wBDAQEBAQEBAQEBAQEBAQEBAQEBAQEBAQEBAQEBAQEBAQEBAQEBAQEBAQEBAQEBAQEBAQEBAQEBAQEBAQEBAQEBAQH/wAARCAFVAeADAREAAhEBAxEB/8QAHwABAAICAwEBAQEAAAAAAAAAAAgJAwcCBAUGAQoL/8QARxAAAAYCAgEDAAQJCQcDBQEAAAECAwQFBgcIERIJEyEUFSIxFhkyQVFZmKHVFyM0OXR3tLfRGCQlQmFxgQpS8FNicpGxwf/EABQBAQAAAAAAAAAAAAAAAAAAAAD/xAAUEQEAAAAAAAAAAAAAAAAAAAAA/9oADAMBAAIRAxEAPwD+/gAAAAAAAAAAAAAAAAAAAAAAAAAAAAAAAAAAAAAAAAAAAAAAAAAAAAAAAAAAAAAAAAAAAAAAAAAAAAAAAAAAAAAAAAAAAAAAAAAAAAAAAAAAAAAAAAAAAAAAAAAAAAAAAAAAAAAAAAAAAAAAAAAAAAAAAAAAAAAAAAAAAAAAAAAAAAAAAAAAAAAAAAAAAAAAAAAAAAAAAAAAAAAAAAAAAAAAAAAAAAAAAAAAAAAAAAAAAAAAAAAAAAAAAAAAAAAAAAAAAAAAAAAAAAAAAAAAAAAAAAAAAAAAAAAAAAAAAAAAAAAAAAAAAAAAAAAAAAAAAAAAAAAAAAAAAAAAAAAAAAAAAAAAAAAAAAAAAAAAAHWW8tBpLwLpRmkjIyNanCNJpQlBqSkyW2a3TX7nTaWz8iP5Mg7HZ/Px1+j/AK//AD//AEB+gAAAAAAAAAAAAAAAAAAAAAAAAAAAAAAAAAAAAAAAAAAAAAAAAAAAAAAAAAAAAAAAAAAAAAAAAAAAAP5zfX29Vbc3p+6z1fjPFupxrLNrbAz+irc3vZFrXy0aVxRyzon6S7zunQ1YNYxjOyH1zMYiZJlTdFWH/v0ull2T7JwkhZnwb50Yzy0w52tu49Dh+88OS1B2PgVPkMbI8ZmWLcaPJsMg0/mTam2dsayYOZGisbBxyI9RSLD361Mn6aw4yQT5N37uvEzV34mk/JClJ+9Br6IkqM/hPZdfB9dn8EGYAAAAAAAAAAAAAAAAAAAAAAAAAAAAAAAAAAAAAAAAAAAAAAAAAAAAAAAAAAAAAAAAAAAAAAAAAAaP5D7uqeO2k9l7pyCtVdQ9eYhe5Q1jcOwh19rlEqmqplmzjNK5OV7b11bqhqg1bEdqXIlylpSzDcMvEw/hq9YDjbsPePDnl16hO8Mc3BiWydiad435JheXYNl0TFdI55q/KMuYd19pDM9Qqbm5NebI03Eu1nl2XWC6+js766an4zBW7HIkhdP6avEuVt70jvT12HpvLKvUHMXTHHzHa/Cc/nwX1Q4l+xY3UyHrnfGO1r0DIct18xY2T060wOfMgpetX4NuUdtaEksLgOJnLJjesPIcAz7HJusORurzrqjamq76THXaNTDbluV2T0r8Qnayyo8ogQ28mYi0825nUNRa11feKYtC9pwJukZ/nLr/AMkf/wA//QD9AAAAAAAAAAAAAAAAAAAAAAAAAAAAAAAAAAAAAAAAAAAAAAAAAAAAAAAAAAAAAAAAAAAAAAABj8z6MzNJfmIz7IvJPfmZ/P5JdH18l10fZ99AKS98rmepZyayHiFTOFhemOEO5tPbJ3rlzxq/D7INs08dvYWqsTwqvdVYUdhrq+p3LKDsCbasVt9BklGhV5S1yu0B6Pr3w4zPptZ1GaYZbjfyt8dmijIabTGS0W5MMT7RRyQTKmzQ34GlaF9JUZJNPSPAPA9IxSk7+9X2Ila0Q6/1B76HAjkpUeHEjsaxwsyZjxFE2UdC3FuLT7TDsdTbfvk8b5qATV5ccR39zPYzuTUt+esOVGpm5Tmr9o1RIbfsqduaV/c6kyx2UxOgNa+2XY1NVCzOd9Uv3tdCbUVNYNSlFIIPS4mcvY+91ZPqrYdKzrXlLqliEW3dMTHHGrSDXy3/AKtg7KxuDMkOWjuq8stI1snC7e1JmfZxq11LzDUlaGzCbvl/2M/gzLvo0kf5z+T/AP5+kByAAAAAAAAAAAAAAAAAAAAAAAAAAAAAAAAAAAAAAAAAAAAAAAAAAAAAAAAAAAAAAAAAAAAAAEGubHLhrjHjOu8cxnG2863ryLzNWouOeBzJy6PHcw2fZ1U+9j1GU5e01Nj4ZUIpKq0nHkMxh+F5wlR+vcebAaj4z8ctz8IeMOv8C13jtDv/AG/d7Pi2e4cnzDIo2HWp4tneY219ldg/k0krWXmdnretuFVWN1MuctqzaipjtyobDTSSDUXr5/1cGc/3vceP85sPAeDQEVF66qaKh7p6XJfTtXmGTU9QZQKu+yp3cjMQ8nu66EaYtnkL0UkRzurGF9YqjxUxE2RwknFUF2ymELLpRrP7+j8j8i7MjLpf5ZKT8+DhKJ1vyV4OJM+wEHeWnE09yu47tjU91/JhyY1VIcs9a7IqYjTiLFRsEh/E85rkuRIOV43aRfpdbXx8nTaQMQnW34VVUZia26p0M3Enl0nezeQa12fjCNUcm9Wy3Md25qeZNcei/WsVuI/Kv9XXVi3XL2jrk2ZsVlWc0EVdTDt3XKl1br7SlqCbnu9kRpJKjUSvA0q8kKUnv+b8+kklRn8EZkZfB/BmXQDMAAAAAAAAAAAAAAAAAAAAAAAAAAAAAAAAAAAAAAAAAAAAAAAAAAAAAAAAAAAAAAAAAAADwMhySsxShucnv5KIFFj9VaXdzOcS4soNXUQnrCbLdbYQ8v2mocaRKcX8e202ZKSauwFO3HCqmc9uV9Zz6fYOy4i4jgjGP8VaHL1Jv67P8nYyJd3RcudZxlmbOFJvaSdYYjFhWdfSZfFeiyFPtqiSksgJyU+ycx2LynsMW1rsvBz1Xo/HrOg5Ea3s8CydjYy9kZvDr7zWc/F80ebgUbFDHqo11MyaNDbtXH5MiC0p+MttZLCEvr5/1cGc/wB73Hj/ADmw8B856lKk4Hyn9JjYGGqPGc32FzLwPTub5RSLTCu8s1VKxXL8ic15dz4xNyrLFZF60zaHVvrdiEuMozYMzSaQu4J8+z78CSRd+RK8jUhBF7yjR2Ske0vyaNP21Es0mfXykw5rYbc78i78vhX3H2XZGZH2RmaTLtCk/kqbUbaiNHREEHuW3EqZub6p23pfJ4WpOWOtY6JOqNryYsuRRSyhuSpEHCts1lU9Ass51bLnSl2NniC7WAuVPajvfTkJb8TDJxJ5Zp3lGyDXGx8bl6u5JaufhUm0tW30llyemShD66rLKSVCQ7VWVFl8KGrIo8Wnn3FhjdZYV8S/NElJvOBOL57+euvzff2A/QAAAAAAAAAAAAAAAAAAAAAAAAAAAAAAAAAAAAAAAAAAAAAAAAAAAAAAAAAAAAAAAAABUX6iW1c73AlzgjxPyuyj8j8vlYdd7Pt6FTS6bUGmLC6iWtqW2njRJl47S7jxivyPB8WklAcK2sHJMREqAR+YCyLU2pNb6B1lh+otP4jAwfWet8eiY3hWGUi5aq2hpYCXCiVkBU6RMmLjsE4ftlKkyFpV0oleXkag8bSuwFbTwdjPJOss21ROu7S7izMO2NSxaHLkLqLibRnZW8GE9LZUzbswimUy5Uh5T8V9lLRttGZAKzPXz/q4M5/ve48f5zYeA9b1tauFR+mvvnkFTRkQ9z8WsAnbt4+bAZ8/rzWG1apMSvqMyx5JJeiFbxIVjMiMnOr7OATMh4jhq7SZBZVo+7tMk03qHIbiau1ur3WOCXF1Yvm0b8y2ssVqZdpMkORk+y5IkWRm5MbYbbbS5IUtP82RIAbeAYzbL5+VF38mZGX5Xx0voyMuy6IyLrw/Sk/gBBXl5xKLdxY7t7VORSNVcoNTtS3tXbXqEttzrCrXNjW+RaiyRyexYQU672q7S1+M5zb/AFRIu6zHHJUugkxlKStAejxM5dt7xkZPqbZdHH1nyl1TEju7b03IU6zOi1r8hNZA2PiMKZJftpuqsstWbBOHZBZpjzbONCWlyE3J7bIJs+R/9D/5TPoy8VfmM0mffj93fz/56+QGQAAAAAAAAAAAAAAAAAAAAAAAAAAAAAAAAAAAAAAAAAAAAAAAAAAAAAAAAAAAAAAAGn917wwHj7rfIdp7OtfqnGMeYdWbMZtEq8u5xMvvRMfximS+mZkmU2ao70WoxqkROubeS0pFbEkKV4JCvH009IbFVK3BzU5I0aY3JDktkNhUwbllbtXI/wBmDF7ybO4247e4cwxFi4nl1PiV06WVR5aImTSbt16PkDk+elLwCf8AtDemKamyXUOL5FUZrY2G6M+j65xR/EMMvMqqqm5kVU21RZZraU8eXHxHFiZr5LaslvUwatMg2o5vk64g1BugozZERfaPovH5PvtHmS0oURkZLJHXi2ayUttJq8FJUZqMKaPXz/q4M5/ve48f5zYeAsj35oLWnJ3QWfaB2/USb3WW1MKViWZ00SwkVcmxpJKYz7sdmxhmiXCV7kVvxcjONmRKX2RmojSEI/Rv3Xnu9+COv8x2RaMW2Q0OZ7S1nXyI0FiuZZxXWGfZBhOGRPYjNxfdcZxypgsKlussuznGiJ/wcV8hauAAMH0drsjMjMyUpfZn2onFl4+4lR/bQtKDNts0KT7bajQjxT0RBCLlpxNLdB4vs/Vd4rV/JXVUt+51js2ritvJfcNBtSsYzeoJyFFzLGrKvXYV9fAyBU2uxK3ulZDVxGp7K3gHDiRy7PeB5Jq3aONnqjk9qmWrHdsasspLhxnrJlhmc7kur7yxagFs7AG4cuBHdzPGokumj3j8unlSmX4LilhOEnfIkmk0K8uyI0makKUn70eZdElR/cXZH9x/CuugGYAAAAAAAAAAAAAAAAAAAAAAAAAAAAAAAAAAAAAAAAAAAAAAAAAAAAAAAAAAAABjWvwJSjUlKU9eSldkSSIjWs1H2RERILsj7+D777AUhchl2PPjnTpzjdQsIzHiJxqsmt0b/wAxxkzr7fC+WGtrakyDj9iKMjsjQzdUN/U2OTSbytpIVnGlFGVHsLusktrhLC7s2GzUSvnsui+T8u0pLokEayUpCfIkOH7ZoNTiEqUZ/aJQaPhbNyS23dYavj60uH8FqsLXk0ndEbIsccxJvMmsgKGetJOOlKXk0fJIcFKMgdnuwSglHQyklJbkKQ4G9gFMPr5/1cGc/wB73Hj/ADmw8BcdEQTldCQrsichx0K6+8iON89dkZd/P5yP/sApj9LI/wCSDeHPbgxiqCPSvFbZmCWWrXbIvp2Trk74o7namfnkF520myQ/llg+/Vl9BiqgQ0ojeb6/N5wLrAAAAYTYbNRKUXkZd/ldK77QTZkZqIz6NBGRp78TNalGRq6MghDy34lyN2M021dQ5JE1Pyn1nF93Um2H0Sl1SlMPuy2cP2fCq3WrHM9T2k136be4P9YV8e1koQt+R8uocBxI5Zlu9rINZbOxudqzkrq5+FTbQ1hePMOS3SbJ5dVnVFJhJdq38ezmDEcyKoq41hY29NVz66HeKalEbzoTiNRkfz9x/n/Qf/z/AOfADkAAAAAAAAAAAAAAAAAAAAAAAAAAAAAAAAAAAAAAAAAAAAAAAAAAAAAAAAAAACBnqE8p7Pi3x2ye815VUWb8hs4jScR45abuZUpiy3NsqRHafXh+OQq15u4sLWNjqLW4VEhJRJ6rnF+BtkaDD3uA3GSs4mcXNa6ehWN9cTIsW1yi9nZRHhxsh+u8zuJuYWlPPREQmO4WP2F9Joo/uK81MxEvOrdfNx1QS9truvoaq0vLmZHrqelrplvaWMrybjwayBHkSZc2QojUaY8diM4+44RKP2i6JHfyYQw4WRscuq7dW7sDpdKL1pyL25a7e1xsfTGRZJkEfceI3NXU19TsHN3750oMfMrJde5Ekw8ZajY+zDix0pUT/vuvhOcBTD6+f9XBnP8Ae9x4/wA5sPAXIQP6BXf2WN/hiAUlU9gvit6z69bYu0nKK/1KdS5rvHZFjf8AlDma8uOLmPY/heN1OHswSQiVU5S1kZv3j16wp6FJbaODJU15tLC8MAAAABjJtJePRmXj/wC3pBK/R5EgkkZF+ZPXj8/d9wCDHLriUW8msb2lqzKLHUvJ3VBypWrtuUjLB3P0JU2Na5Bq3IHbFqwrU4Bs9ylrcYzGYxXOXNPjr0uTj0qCpaXEB2uJ3Lxe7peS6g2jj8LWPKfVUVl3bGolvSEuFUOzyp6/ZmExprr1tO1TlVqzYR8Wu7lMOwktQnXJMNK/5oBNwnDMz/JIiJH2iPz6WZ9GhSSMjIy7Lo/+v/ToBlAAAAAAAAAAAAAAAAAAAAAAAAAAAAAAAAAAAAAAAAAAAAAAAAAAAAAAAAAedMsY9dFkz7CVEr4EKO/NmzZrrcaLCiRSU/IflPvPNsstIiodW4+46hpgmVvuGprtKQpd0rWL9RrlDke+tnsSWdLcGeQVnVcV6WoQacbznO6Oocio5HY/seA3EYzHFchxnJJ+OtUNY7ZYw5JaelJsTbL2DC60mEko1EtZEZdKT9nwUXkk0kaDR0RIQn2k+JJM0KV5mpzxWkPNlxmpsZ+JNaYmQpcR1qVElMMyYs1l5DrUmO/GUh76Q1KircYkMG1IYlMKNDKGT7Mw40WOUOL1UChxqnq8eo6pj6JVUtFXwqioq4n2TOJXVtcxGhxIxqSayaZZQSFrWaPDsiIPaAUw+vn/AFcGc/3vceP85sPAXIQP6BXf2WN/hiAUh+p2guMvJnhT6jrBFkkjX+Ww+FaNXuEVdFtYXL3N8bx5WafhGSXlw38Jdo/psKqKP9EnJfa9x6F95heUAAAAAAOv9Fa+z8H9g+0ddJJHx4l4JSRISpLf80hxKSdQ12hDiSAQj5b8Skbw/BjZus76RqzkpqiW/fap2bTse6hdkcY4UjHM8okSYNbnOKWNQ5ZVcGtyV+dVYvbXR5HBhJsWDfMNR8c+au6y2bC4/wDOrStDxt29l8ORc6flY1m7OxNcbHx2vmM1DyJWxm4NRjVBsp+zU6cHWL0p3J7KrjO2sCJIZI0EFmbchw/El+35GpZKNBKMkF2XR9eXmaWDWhh41pacNZm+tmM0XiA7oAAAAAAAAAAAAAAAAAAAAAAAAAAAAAAAAAAAAAAAAAAAAAAAAAAAAAAAKtee+9c6kZnqLg1qBqkgbI5dxs5orPYN/BXk2Ja51/jVExK2HFyXHq6SxaM3GXYbPsqfB7X3GoDN640/MhyGozrDwTM4zcdsA4o8f9T8cdYrula+01h1Zg+KPZBNTPv1UlSypiGq1s24sRU2clhZtLloYjrWnpRklZEoBv4Bp/MtRxMz2Hq/Yj2ZbAo5GrZOQyY2MY/kkitw7LjyKr+qpDOcY+ll1nI2YDf+81KXXWFwpnTpLcb7ZAbgAAFMPr5/1cGc/wB73Hj/ADmw8BchA/oFd/ZY3+GIBVp6welLLb/D9eRVt5Bo2+NW29ZcsrmPJivyHckxvj5cy89yPC61cV2OliyyiFXvVMJ2UT0NqQTb8uO+j7JhO/jtuiv5D6J1HvWopJuOVO3NfYvsGuobKQ1LsqeJlVTFt4lbPeYbaadlxo8pBSHENNo8iPxQRfcG6gAAAAABgOM2fwfkojLpSVK80K/m/a7NtXaC7bNSVJSlKF+alLSpRJUkNDcieOOtuTOuJmvNixZ7bRSU2+LZdRPNV2ca8yphDyK7NcDyR2LLmYzllSmTIKrtoaCOGThoQz4JSgghxxw5EbI0/smLw65kWUBzYX0We9pDdsVpytxDeuEU/gbcBth2VbS6zONfUL2P1GwbjL7GtZyzKJkpVD9ZE6iK0FoHuq+CPwJRmaSSXZko1dLSaDM0mrwb7U4jxI1fek0kXyGcAAAAAAAAAAAAAAAAAAAAAAAAAAAAAAAAAAAAAAAAAAAAAAAAAAAABprfu7Mb476U2lvTM4dpPxTU2E5FneQw6OM3LuZVRjcByymsVcR19huXLVHaWlP+8IbJz4L3OjSAgNwL0vluZ7M2V6ju1Xqauzzlzr3WMLFNe4zIes8SxLTGKQZVhp+9bnWrT903nmV4tkMebnqG5xU8S2JUWpekQ0IdSFrniXfZGZH/ANzP9x9l+4BgOR2ZpR4q8fA3DI+yQhXRkfiRmtSnU9+ylCV9qLpSiPojDh7izPpBpI/c6SakrNXtpUk1pJs1EonDQpLfbngltR/SFE4300YdwAAUw+vn/VwZz/e9x4/zmw8BchA/oFd/ZY3+GIBojlTrK73Vxo37qPGpdbDvtn6f2HgFHLt33IlTHtcuxm2ooS7B9pp+QxHS/NZbmLQ0l4mzX7LjLx+4gIm+kzsuizvhVrvB6lizZt+Ms2z4n52/LYQ3Ds8/0PHpMQzCxoHyc6l45Z2bRPUUyQTEmVAUf8wSk+4As3AAAAAAAB+EREZn89n9/Zn/APz7i/8ABEAj1yP46a35Q60s9abLpWJ8VyTEvsbukG4q2wrM6J9Nrhub0Tra4612uL5DGh3dZHkfSK9dhEjonwZkNLkcwiBx45GbB0hsLH+G/Mm4VI2DPUVLx/39cn9FqeUUCFGdOHVO2JRa2vlcgYVHXWF9sTFcUpWKCDC+iv1byku+ysLOm5Br+8iLyJZtl4H2ZNq/nDUpK1tpIkrQSDNwidMjcQZtrSRB2wAAAAAAAAAAAAAAAAAAAAAAAAAAAAAAAAAAAAAAAAAAAAAAAAABwJf3dmRkfREZEfz2XkRkZn10SPk//PX6DCk/kTbTfUZ5EPcStXSX6DVPDPd+ucx5W59PkOV6pGe0UBGYYlotjCbA4kLYuvdiYTbvzsstvpkikpEQ2Ik+kunZzJshdDDqK2uiQ4FfDYgwK5huLAgw2m40SFDZZbYZhxGGEobjxGGWWmWGGiQhmOhMVokRS9gB6QCJHMGdanqWHiNfR41e1G1szx7U+YnkW34+l5NThmdOS6vI7bD8vddblP5tBaQyrFcapZCLa8sHFQ69+KbJOEEisJwun1/iGLYRQOWa6TEMdpcXqV29nKubZyqx+tjVNZ9aXNit+ytpjcOK2T06wkyJMp1Tjslx1auyD60AAUw+vn/VwZz/AHvceP8AObDwFyED+gV39ljf4YgHZJlCT7I1F0REXz8/lGtRmrrzUbhmXn5KUR9EZERmo1BSJ6TsuJonZHM/g3sMzh8gaPkJtLmLY01a2dpjyNK8kc7lfyU3Csma6qXsht04ralOx0z+tsdKOkpyGPdQRBeAAAAAAAAAAw+wj9KzLy8+lK8/tE4TiTJSyUpJJUXSUpUSSIzIi+4yDQXInjprrkzra51vsWtcdh2SDepshqJT9RlWKXLMliRX3eL5PWGzdY9OMo7cSXLqpcd6TX+cB1w2HVoUEOeO/IvZGldl1/DbmJJhfh1JiSpOi99MsIhYfvzEayQxWKdySWw01iOA7Lg2MmNitLrSVdv5PlMCleyKBCkNKd8gs8RJWfj5+Hz15GhKzJPkZdn8mS/Fk1tsum4hpzzNTzjMdoiIw7oAAAAAAAAAAAAAAAAAAAAAAAAAAAAAAAAAAAAAAAAAAAAAAAACGHMjllivGHCccguVVjm2391XVnrfj5qTHJLMDJtsbGOlk2qsaxq0sG1UNfPraCHZ3bz1/MrIhs1MlJPJNxHgHynp5cWr7i7oavq9n29VmvIDO7Cxyvdm1GIjjN7nt/Pt7ebQMZNZyXXptrZYLi8uFhxSZDy0qYpi9gkMGy2gJ9AACKe1dQZntbdGrHcj/klybjbh9da5NkOv8zwqXc7DPd1FZQXdXZ7hWUPTEV1JFxqM9fNSvcgS5qpE9mRAmQ3mycIJWAAAAph9fP8Aq4M5/ve48f5zYeAuQgf0Cu/ssb/DEA7wCivG4r2j/XR3ZsjaTR4hhXL/AIq6E0xxzu5ZktnZmzNP2Oe5tsTE6pMM3JUKbi+LWFVb2CsgZqYSWrBDFbIeWh83AvUAAAAAAAAAAHEkERmfZmZ/n7Iui+ekl4kX2S7+Pz/pMwGhOQvHPW3JXXU3XGxoU0oipKLXF8lpHkV+Xa/yiKxJZq8ywi9WxLcoMro/pklyltW2nTrnV+TLPikkEEMeO/IXZWldkRuHXMe0rns6cYmSND7xjsu1OIbywSrN9+HQezOlzJUTY2vsUZoqvY9/lU6nh5bltmpePsWDbiIbYWie6rsk9ESjJHiX3kpSj6UaTM0momiIzcT4pV0XfZdgM4AAAAAAAAAAAAAAAAAAAAAAAAAAAAAAAAAAAAAAAAAAAAAA8C9yKtxqmt8gvJcespqKvmW9vZS3EtRK2nrIzs2ytJrri2yZiRYkeS86aPecJplbzTchJeICnTTGOyee3NONy/vK5WY8NtK4rXI4kHk7akw5e+YlpORackNRyK4mpF7g+Xa+unsZrbWxspEezaRIJWOVqjMzC6UmUfPfZ+SvI/Lo+z8fb/OX52+mz/OaS7M/M1KUGUB1HJBtkZqJJdJNSj7+ygvF5RKNajQg+ybIjSpTXRn2aujLoNO681xleH57uHL7zcOcbCotlX2PW2G4Fkkejj41qGBT0jldMx/BHqqDDlTq3IXjK6mvXcmwfRNQ2hLjRJWlQbtAa42ltfAdKa+yza+1cspMF1xglQ9fZfl+Qym6+moqeIZfSrGfMfdQyxFQTjRpcNxf3qLxUfwkNNcOuXetOb+gcS5H6cbtP5Pc1nZLDoXbtqMxPkpxnJLPG5Ur2o0p+N9ElPVyZ8CQiWtEuFJYUkkKc+yEDfXz/q4M5/ve48f5zYeAuQgf0Cu/ssb/AAxAO8ApO9TRhWIct/Sq35k7a6XTulN67qk7a2ZPNUfFsAi5zq6PiWHO5VceXhVR8nyee3R0yJSzaXZvx69lLS+lmF1jbqXUNutrStt1JLbWns0uIWXm2aDMy77b+TP7v+33AMoAAAAAAAAAA/Oi/wCvz9/z33+b8/z/AProBHzkTx41tyb1naaw2PRMTq516LdY7ate6i0wzMqJxNjhedY86wqO6Vvil6xDuKltZvQFToMZubCmRCcYWENuPXIvYmhdhY7w15k5E7Pzqe4jHuPPIK9NMOByeaYTIeg0dlMTDra+Vv8AXT1lxlGa4zhtOWO01OylMR6S+wpTwWhNvqX8kaFJLwSokl9pC1GZmkzS442pSSMicQThG2STd8locQkg7YAAAAAAAAAAAAAAAAAAAAAAAAAAAAAAAAAAAAAAAAAAAACpj1J9xbCyDH6LhpxXsoFvyU3ddVtVfUX0GLb0GOaMefgI3EjPb11MqBryfkOs7K7bwSfdlVy7iewcDGJCpTZugLCdEaN13xv03rrQ2qquXUa31ZitdhuH1ljZS7mdEo6ttTcZqZbWC3p9hJMlKU9LlOredWo1KV2YDbwAA1PuDHdg5drXLca1NnrOrNjXFeTOJZ/Jx6NlLONWX02NLVYvY3OWzAuf5iK/GNqUv2TTIIycPyUag+4p4lhFq6yHazW7K0YgQ2rWxTEjw02k5qGlNlaNwWW0JjlNsjOSuN8to8iS2kk+JKD6AB8hmOP0eU4pkVBk1LVZFQ29TNiW1FewINtV2kZ5hS3YVnXWSHIEpg1Gn/d5ZusGlCCNJknsw/kJ9OLIufmC+m3a7017nWEaI47cTcj5H5xX4DHx/GtiWHJ7F8b2RneT3VVaTrBmJc6YRUsQ5OJRY8ODZKfZtI1pEhxm4LLbYWMerDt57fvoyYjup6lRji9s2XETYC6NuQ5LapHMp2Vr+4frTnyW4SZDMD6W6hMtbbC3ktoJMby77C/+B/QK7+yxv8MQDvAKdvXNx6/yT05dtVmN09tkFmnMtMy1Q6apmXNkUSr2zhNlYSWo8YnpDFfEjR1WM+zaW2imYhrkl/ONmtAWna/yXH8swvFshxa+psnobKmq36q5x62rruosYxRERly66yqpM2HOjk6h9BrYfUXuR3k9maDIw+7AAAAAAAAAAABh9lPx2a1ES/cIlq8+l+57hGRqI1J8T+ykiUSSR8dfBGA0LyH47635Ma0vNZ7HqnHoFmy99VX9XLkVGW4nbJkx5Vfd4hlcBSb3Fp6HYyGnZ1HMhPuwnJNetZw5T7Cwhrx65EbD0bs6u4ccw5rH4XzIEh3Qm+2YaYGD7vw2okx6so+T2LDLOIYHs+usJ8HFaXXU25k5jmECkk5Cw1ObW4ZhZ6iStZklPs/aJXio19L8iUlKj9gzJzwYUtLDvmbbpye0LZjoMlAO6AAAAAAAAAAAAAAAAAAAAAAAAAAAAAAAAAAAAAAAAAANcbQ2vgml8FyTZWzsjgYnhWKVjtvc3M1Mp32YjDLj7jTEGNHdnTp7iWXERK+vjy58lZETUQzJREFYHpg6z2XmFpvPnjyMxeVim++TeSu4bGgRfo0LD7bjjq/IbaLxsyikofpUmRCm5lrezqbq3fmvNTJllLfOZVVPtlEaC4YAAAELs/jXezuUWu9fP1e38LxfTddB3tH2HhexKfH8C2TeTJE/DF6l2FikY3slyKshMzvwpXGksxqiTLixIyJxLbdZcCZqW0pLrtRl8mfajMzM/v8Ak/kuzLyMkmReXz0AyANOb2q9u3+o8+pdBZLh2G7hssclxNfZPsGms8jwiivHlJREssipaZxidZVqWUyVOR4kqLINRteL7aSV5hRRp30xPUh1T6au6OCR8pOLlhkmwbrIazDs9/kjz5yhx3Xm0HMunbbq7qA9fqsZ+S31xlbC8RuIiov1HFakNWDFsRNqQGvudOjd+cbfQ1r9HckNg622bnesdj8asPqcp1dittiGMv4NQbd1zVYfWy4GQSJcuVfQokR8rW2Mm0SHDbWiJG7USw/ptgf0Cu/ssb/DEA7wDWW3KixvtVbNoqiOqXb3Wvc3p6iM2r2nJdla4xaxokNCiPwbddkrZI3TI0eaiMkeZF4hWP6ItxX49wF1BxmupLULdvEmna0nyEwFxTi5+uNmJkysmexazkmZwZs9OP3tfbE7UvToaY1izHVJW80s1BcKAAAAAAAAAAAAA4eBd+XZkrro1fZ7MiMzIj+Ovjv4+OwGiOQnHjXHJTW87W+x4UxUFUlFxjWRVDxQMqwLLIrEtipzXCrhbUl2hyyj+mvOUlq0y4dc6aVMskSfAwhfx35B7N0ZsuJw65lWsGXmC2Zjugt+R2FVOHbwwqCh96Hi77djImWSNj62xNiihbFyS+kV1fmOTWapNLHU6622gLRDcX+ZJfcj9JkalGZLNP5Kle10ZqQaUqMvzpP4AZgAAAAAAAAAAAAAAAAAAAAAAAAAAAAAAAAAAAAAAAYTcV5F0RddF5dEZ+Pl4GRmvsk+JJ9wzP8AP0nrrrpQUk8o5z3N/nNo/iHixrsdLcbMgruR+99o4S4qwsNfb61xeV0nXGgM/YkKKoiRNh4leybp+FOhqulQo0R9k3UyDbILtW4zLKUNtIJtttCW222yJtttDafBtLaEElLftt/zSTQSTNokoUaiSnxDOAAACJ+sNXZErde1t47W1zrOi2FJff1frLOsJu8qs72/0FXyouQ4/GzStujYqK3JE5Ac6dKgUda6s1oZb+nJjkttQSwAAGE2EGaVdmSkfkK+ypaf5tbZfaWlSleJOLMvM1faUZn2R9AHsI7UozUalEovM/HzSgyIvBLhJJzxSr7ae1molH35dEkkhTL6+KEo9OHOlEXye3uO/wBr4JZF/LThy1ElxJE4RLNJkoyV5dLV0ojMjILkoH9Arv7LG/wxAO8Ax+2Xz9pXz59/JF2S1eRkfREf2fyUmXSiT+cz+QFHvprx16y5t+q9rvYKE4lm+6eWk/fmrcUvSVFutg6UbwDC8Rc2ZjMPt765wksmRKpE2jJlGRax3K00eSUqSF4wAAAAAAAAAAAAAA4kkiMzLvsz7P5M+/8Awfx1/wBiIBoLkLx61tyW1vba02VRx7GuefZuKazT9Ibt8VzCocbl4pmFLIjLZfXb49ZMQ7OH77kiBIlQI7VlBnwyeiKCGfHrkHsbj/sLGuGvMzJ5VrmNpIaxzjtyOv8A2YzPKCNHZkPxqXIH2Y1VUo5DO11XcX+S4fhlUqiYx6P9Zx5DHs+y6FoKH1LLvpBEalERk4lSTInFJPpaDWXmgukOJ8SJMgjaJS0rS4QdoAAAAAAAAAAAAAAAAAAAAAAAAAAAAAAAAAAAAAAQg9QDk3/sr8XNl7KqqOPm+eN1DVRrvWEG2+h5bsTJLidX1j9DhtVD+lXl/fVlJaSb8q2mr5kpcarkSn2osFCnyDH6fnGhvivxe11rmxvXs0zORWu5Fm+f3FP9CynMbrJ5cy9bey+a+5MtrOxqY1qzQpm3EuZNah1zEFUhTMZpKQnGAAADS2896Ynx8wRWw81q80uKJORYnjBw8BwvIM6yMrDMshh41UuljuNxJ9o5Bbn2EU7CWiP7NdG9yTNVHaIjINIv85tQsZtFwJWLbtO7sN+XXHOPLTpXYZ0Ss6x3HZWVTbV/ICpDq06+crojsGszxc88YtbtZ1LE5DyiMg+Xi+o5pCdBx+fGw3kGTWS6x2xtquRJ4+7RjyWsZ05kBY/lFbYxVUBuQMss5Xb2H4u8o77L67q0x+tsIx+IDsXfqK6QomMgelYfyAf/AAbw7S2cT0V+g9kzVOVG+bCNW4PFr/api+sLqI5Kbk5jVsET+FRiUeS/VyiAfUL5zanazlvXrmLbtVeucgJvG1MpvSWwfwd/D6DQ/hAu2PJTq/qT+T6TD/mY2ffTfwZOy/4Uqf8ASftgPkYHqN6OsouOyo+HchEN5Nrnb20IH0nj/sqObeO6SuiosuiWCFU6lV+S2c3tWG4s/wB3+XRi+k0FfYtmArD9ZLlbrrdvBrZ+vsUotn1dzUyeF+4HpuZ6xy/DqN7GtobixiRR1kS8vq6HTzMsqmIbpZjizVgm/wAOcfjquq1svJtQWww+cOpU5fF1x+DO7Pr9nfMfjT9MPSOwE48rYBYx+EBW318VaqoLXpwy9o8+KerGisv+FfTzkF7hh89S+otpG7j0D8bEN/tFkmEblz2u+m6D2TBNup0VbLo8yr7FDtMtVdktnYtOlheNvGq2zCKSZFBHsG/kw6031H9H10PIJkrDeQRt41rTUO1rFuNoLZUiQ7jG7Lo6PEYddGTTE5YZPWSunszxZkyvsQru7S/r6+N0kwqDy7nHp6j/APUIa3obrFN3UcK14/u8OafKrvSmeVOB3e8sn2PCz2orqrO5dUxR21MqgOTZKyNmym130iPIJL6X0pWgLiqP1EdI5C3QOQMR3+0eRYvvDLoSbDQeyYJtVvH2RJiZ7Fn+7UH9X2st6K6eF175G7myDT+DR2JmZgOpJ9RzR8Sqv7Z3DuQSo+N6r1TuCxbj6A2XIlO4vuHIfwfxWsroiadDthl0WR/P5TirPV7iNf8A8UyGugRfsgPqWud+onsznYM3iu7vriu3vj/HeRJVpPYaaVzPckxeLlsCwh3p031PMwRqulNwLTPW5ycZqr3uqkT1vF5APFxz1DdKZOigOvxHfbKsko9639f9ZaI2PXpbi8eTmFncWw9+m/4fZWn0CQWCQHjU7nBmz+DZ2PuoIw6Ej1HdHsUl9fHh/IM4mO6f1tu6az/s+7LVPk4ds2//AAfpIFbCTU+5MzWDL/nsowlCiyTEK7/il5AbjfYMPpUc89PuZVcYejFN5/WdJvPEOPsuYrSGwE0TucZri0XLqywhXf1YddLwaur5iIOQ542+WMUl4y/U2M+M+RKIPLxv1CtLZR9R/QMS3zHPIIG+LCB9Z6J2PX9M8eDnlm5Tfepv9wdtvquaWCMveTmcGccsbKw95HkHmueo7pFGPXWTFhvINVfQaWwPfFjGLj7tH6zLDdiZTFxKiq4UL6h87DOYk+U3OyjCGDTkmI0vlbXde1HT0YfT/wC3lqD8JbrFfwW3gdjRbqwXQ8x/+RDYhVLuY7BxyLlNRbQbX6mNibgtbWy24WR5u2hON0d6SqmxsYz32gHlYz6hWlsq+oSr8U3wweQO75jwfrPRGyK7pzjuc78N3ZnvUyvq9i1KrnfgIb/mrOe4/wCDf1h7qSWHmJ9R/Ry8Ut8xLDeQqayl0hiPICVFVx+2V9cO4LmuTxsUqq+FVfVH0iZnVdYym38iwNsyyajqiVa2ECPHLwMPpnOeeom727x5WK7v+nUO4dbaQlvJ0hsFVe9mG0KFOQUU2DNKrJuZiVTDdZZzLLm0lj2IWfnVXVkxIIlkHkY76gulMoKkKuxLfbP4Q3e9sfgnY6I2RWmzK47/AE/8On5xuVBrg1dkdXO/AOepXt5t/u/4OJsveT5BHfkJyZ4dcntBZdTbJ1xyNmYsegcZ5CMzq3Q+z6HZWM4rlmUVeM1y8MfiUkfKqDakSc/GdyLE6P6JmEHFXZ65sVdU7LjrDXPp2eobMzbkdu707dox86zTbPHFmkco94M6zySoxDYOGWWKVeUtMZbOh1z+PYLmmL1VxT49Cx22tiv8yYgLvCj/AElEt10LwAAAAAAAAAAAAAAAAAAAAAAAAAAAAAAAAAAAAAHSflojtOyHnY7EaO0uRJffd9tmPHaR5vvuPKIkJQwlK3FeZtoW1/OE4hKFdhSrxjhL5s8898csMnaKbpzjNcTuN+mNaZq2m8Vj29MBv0P5NyJ1zOQlNLVw84xG8bxSDPjrXcymG5jEh+RV+zDaC7Mm0pMzIujMiLtJJSfReXX5JF2Xa1K6V2RKUZkRAMgAA66nV9n4kRpL7jNKiV2RGSy8TNPZNn9s1kfRl/NEn3OlGGlNH1W76nFbqLyBynX2X5o5muZS6Oz11jdnjdJX67sLpyXhlJZQrx596RkFTQLhRsntGHWYtvYtLlR4cMvFsg3d7DfalEXSl+35K+8zJtanEJ+eySRLWtReJEZGozSZH0ZBxOO2f3l9/RqPxR2pRF4koz8eyUSfspNJl4JIkt+CfgB+kyjv8/5XmX3F0fuE58GkiPrtKE+JmZGlCeyNXajDl7Seuj+ejUou0o6IzV5F0RJJP2D6NPZGfZEpRqV2ow4mwhXyZr7NRKUZLMjUr2yaUZkXRdqbIkn0RePypvwWfkApk9fJBF6cOcmRn3/K/wAeT+fE/v3PiBq67T2XmkzbMy6Ulv4QaT+QFyEBCfq+AkyIyXEjEr4T2fbBL8uyLvy8vtd/+75+8zMB2VRm1d/KyMz+0ry8jUgzT7jRksloJp1KTQpCUkSSUpbXtumThBzJlJf8yj6V2kz8TNPSfAiI/Hs+k/BqUalrT9lxS0fZAUp+rWhxG3PScs3GvGso/Ue1bZ3Fg8y0cWkioxfL1ruJj7yFlFgxjd8pEw1swIjvsokS/BKmlBdG04w+w1IYcadZkIQpL8daHmZDb/22lNuoI0usvG+TpOtmSTSozSoiP4Ds+yn4+VdkZGR9kRkaTPw66IvyCM0dn2a0fZdNwgH77SDV5GXZ/PRn/wAvZpUfiX3F5LQlZ9fetJKP5IBx9kuzPzX9pZrV8p+0Z/k9/Z+Pb6b8FF0tPtI+0fbnuBy9pBH2XZH32Zkfyf5iI/8AsXwlRdLSn7KVEXwA4fR2zUpavtLWSCNw0t+54oMjSklkglEklkbiSI/sOKUpvw6SSQ5eyk/Ls1H5LQ4rsy+Vtmk0K+CLrxNCPsl0g/Au0n5L8g/Cjtl9ySIu0GREhvojQSUkf5HyZoQhs1H2okISSDR0RgPz6M0ZdGRq+Wj+10f2mVk42fXXiXgtJKQlJJS2ou20oMz7DkbKD/T95GZEfRH49eJH1+ZJpSaeujI0/f8AaX5g9lHRkfkZKUSz7P8A5iNJkrvojIyNKTSZGXh4kTfikiIB+ew39xERd/f0hsjV2ZqV2fh2XmrpSvEy+0lJp8TI+wxGXj+UZF0XgSi6QaEuH22aEH2RqNaW2m0GnslpM+1GpRKCujlNykzx3MofE3iTAg5hyYy+EmRfZVLZVc4RxoxSS9JhMbN2nAZkxZdtTTbSFLxUqPG7CRk9fbWkGdKr11SPcUG+uLvFnCOMuHzqyjemZPnuZy0Xu29o5O8i2zbZuTpZebKzyS/fZRNsm6ZMhdPQMyvJFfQoZhGl1xPvmEqAAAAAAAAAAAAAAAAAAAAAAAAAAAAAAAAAAAAAFP3qg7N2RlUnQ3Bnj7mFhg+9uU2XOXcfJDW1GxaTpfVN7T2/IDDry6JidOrZeV4FPtsbrkwK/wClrkvutom1DiUPpCzvWGpNd6XwPGdY6txavwvA8OqYdHjeO1ROqi1dXBbJlmM3ImuS5zyjZJLbsmTKeluEklKf9wvMBsYAAavzbcmtNcZDrjFc7zfGsUv9vZO/hOsKu7smoM7O8vjVMm9cx3G40g2lWVqdPXWlkUaOtzqHBU95mbiEAPnNc62zDDM43JluR7kzXYNFszJ6e9w7CMmiUEWh03AqqYqudi+FSa2viWUyou7RJ5BIkXzli/8ASTNLTxRTS2YbuJlBERERERGZ9ESS+9SVfPRF30aE/f8AlEX2/L5AZQAAAAABTD6+f9XBnP8Ae9x4/wA5sPAXIQP6BXf2WN/hiAd4AAVJeuchLfpF8+5TKDKbW8dc0mwJLRJ+lQJSm2WfpsRZGS2XDZcebS9GcS62h1aWkoPvoJ7caXlO8dNAureN913S2r1nIW97rklTuDUbhOmpwzcf+mL85HurWhxwvJxw2leTaA3uAAAAAAAAAAAAA6pyDIjUZJ8SLyP5IvFJd9L8zWTam3Ole2tSmeuvyVH2SQrt5R8pM1dzhziVxOgVeYcl7uriysztZr8xrFuPWE5Ax7qc9z+xrmpU6gvbGmkWdhrCK9X2ES6yaqRBmRVRUueYbv4r8WcP4vYCrHay3tc+z7I5KMi2ruHK2orGcbZzacxHjXecZfDipYqK+ztkw2FS4dBFr6xpaVphQIiD8DCVJtpPv5P578i7IyURl0aTIyPpKj+0fj0fl89/mAZAAAAAAAAAAAAAAAAAAAAAAAAAAAAAAAAAAAAab3vvPBeOGndlb02jMmVmvtUYld5tmE6urX7WdCx+hYclWMuLXRnPesjixmlvusxVG+TZfzjTCiMiCvj01NO7HyOgveZPKiFW3/JDelxeWmGZI3Yx7Sjp+OkmfZytDtYjRJbVV68vL3VNlTFsGLSRYF5dz2zdzREyYjpIW1gACO3JXkHXcb9T3OzLLFsrzOQ3ZU2NY3jeE4xkWWWVzlmV2DVJiUGTGx2tsrKBRTbiXBRf5UuuXT4tVuTLawddjwHEuB7mvK2+2Bger8w3vqjEMT27XQ4mR2OKNzqnPGNcZk/FciWP4L5i5Wx1KkRmHnmTvKpiFKkMvLjpeKMtTSg3OTCCPyLzIzMlKUS1JUs0kZI9xaTJbhISZpSlalJ6+VEpXSgGYAAAAAAAFMPr5/1cGc/3vceP85sPAXIQP6BXf2WN/hiAd4AAeHf4zj2VUlljWUUlTkmOXEc4drQX9ZBuqSxhKJslwp1TZx5VfLhue2nzjSI7rJn2ZII+jIKdvQivb7IPT+p5eQXFxeyYe/eSdRHft7OfZyIlZQboyWrgVkVUyROlIraqLCaap4sY1RY7DbUeO1XQiTFSF0oAAAAAAAAAAAMPuLIiPxI/zmaDQpKfH8tPkpbZmfwf2vEiT+cvg+wrk5Qcp81lZ5W8TOJRMZDyTzCvsp11mJRmbPAtBYjAlM195lmZ277MjFl55SOTqyfj+p8gk1+R5JVvPT6+BIgsKkgN68VeLGA8W8Cdx3HXbDIMxyKznZVsjYeRzpl3leZZdkEt61yGwet7h2TbQcXPIZNtOxbFETFUmLV0lVZRRocAvo5BKdLKEklKeySjs0pIkkkjP85ESS8fH58SR4pLs/g+wGUAAAAAAAAAAAAAAAAAAAAAAAAAAAAAAAAAAAGBTpkZl1+YvkkmoiNR+BIIiPtakr+VdGXSP0dkZhS3uPJJ3PDnEjiXj1hKynh7obGrNzl2vFVO1z8LkRFlxLLFNAbKOcbJZFgmX63ul2t/jtbAtqq5QUL6TYE0ZtrC5Knx+nx6oqaChgRqeloqyupqisgNNsRIFVTxmodTXx2ySfhFrozLTURkj8Gm0Ejo0dpMPZAeY7bQGp8ascnwW7GUy/KYgLkIKZIhx1eL8liOakOqYjkafpL5IU0w4ptlaiW82ZhqDSFXvSoxC0jchcrwDMMzXnGYT6iz11j1vjdDGwGbeTpGE09hCvpEmU/kNJjT0KPkdnHkMRLSyjynIUKDGUmIQbr9hHwRGpKSJJeCfEk/zZpNrr7PaSaNP2EpNKD7UbiVmZmAzgAAAAAAAAKYfXz/AKuDOf73uPH+c2HgLkIH9Arv7LG/wxAO8AAAClH09SLDOf3qjaMxZP4Pad1rlPHy317resMoWH4hY7BwK5yTPZ+O1DP+6wZGV5CRXV0TSGlOyDfXK+kqUg2guuAAAAAAAAAAGA3jIy6IulEg/tfZIvPsk/bMzJRuLNDaEEklEryP7RGkgFcHKflPnczNoXEziRBhZVyUzCA3Lv8ALpbCbHCuN2D2K30o2jsaI09DkZBVTpEGTQVNLh9hPyJu8m1rtjVxq9K33Q3/AMX+LOB8YsNm02PuWGQ51mM2Ld7V2pkD6J2dbRy1iI639d5bkPsMzLl2uiLVR0kmel2ZWUbTNaw+lLaTIJR+0jslfJmXXRn130klEkjUREpRJJaiIlmovtGZ9qMzAZAAAAAAAAAAAAAAAAAAAAAAAAAAAAAAAAAAAAAEAvUG5U33F/Q1paa2rqbMuROdzywvQGpp8mW3b7LzWQUFdxU4jGr3E2djaY5iTtxlpRkMe9JbpnpHtN17pOID6vhlxUxfjVgd1OdsLnM9ybosazYG/wDbWWsMxc42vnqatuHAuMrrYiWqWvn0WNN1WKNRqmFXQkQqOOhyKqR7rzoTSAazzPcWs9d5FrvEc5zfHMSyfbmSy8N1hSXti1BsM6ymFUy72TR40xINo7SxYqIMyycjRzM/obC3ScIy8DDrz9JautNuY9vediUORtvFMOucAx/NTlWLdhW4fkVhDtLukRGamIrH2rCwr4kl2VKgv2DamSRHlstKW2oNoE0ku+vgz78TIkF4dkrrxIk+Pwa1n2pKjM1H5GZdEQZAAAAAAAAAABS369y3V+nBnvbRmaNtcfHOiJzoya3XhZLUk0NvGbRpcNsnXEseKyJ9STZUSQFyMFakwoSFIV5Nxo6DLx8VEskMsl7hGrwbV2tSjZ9xajSRGlZ/cYemAAACj7Y8lzT3rd8X8e1iTmI03LLj1yDzLkVAr0l7W2Ml05WY1Xa0tsiTYHIejScQh2MyFWs0zdc49HkuOSGrEiUSAvBAAAAAAAAAdZT5oSo1Ek+k+R+JkRJQZdkvyWpKFNl0ryWpbXwn4T2ZEArp5Rcoc7mZuviPxMg1mX8kr+vjLzfIJr0lvFePmGXbBrXl2Z2NccqTR5lYUkixuNXwZ9XKqrvIK+DAmpXGkeQDe/Fvi7hfF7X68YqLGfm2b5LOdyrbO2cmbYazTb2e2aWkZJn2XQ2SRW19lcKYack1+Px6+kbUkmolXHZIm1BKbwL5+TPv4Ps+y6M+zLo+yIlfcfRF8fd0fyA5AAAAAAAAAAAAAAAAAAAAAAAAAAAAAAAAAAAAAPNn2kSrgy7OzmQq+ugMPS50+dIbhw4cWP5LffmSX3Ex40eM0hxUqU68TLCGlvrImj+yFLev6iZz/wCfjG/raJJyTh/w5Wj/AGY8m9p/FJT3LJtVli21L6F7SI8jYes7PX95VtY3kjD1xg93KkPS6SW8ptaQF2RNIIuiLojU4syLoiNTnkazUXXSvJSlKPyI/tGf5uiAfPZNZ3kDHcgmYzUR73JIdLbSsdpJM5qsjXl3HhS11NS9YyTQ3ARNsmo0GVJcSpENEkn1GaUmQDW+v6+5z7CNY5ju/WOKYttithxckl4ucqozhGscysIBx7qBiWYuVrDqpMZhyRGmZDXR4siWxKlx2XkRlEy2G7QAAAAAAAAAAAa32vtPFNMa2zza+cPzIuHa2xO8zXLJUCvkWc6JjuO1Ui3tJsWsikqVNUzFjO9MNkS1LI09l12Yf5EPqg+t9zC54bXkVVhttNnoPWG6sizrRFFVYdEwU5VHCuo03DJOb0kFEb8JWo9bW0zjMDJWZiES4i3fbS55pUH9rf8A6aT1qdleovj+3dNcqs9j5byTw2xRluORKDXkPE8bj6ibgUlOlT1rTtN1Miy/CCU42cBxKbY09KNoyIzWH9ZYAAAKMvWMdXoT/ZO5wa1SVXyEwLkhpjjNjuRziVY0sPVHJfZWP4jtmpkY843IrHLKbTRkQK+9cQqRRrcW6xLWs+kheKTqzIu0+BqJZl5kXz/9M0E2txC+/jtHvJWZfaLx+4B2AAAAAABi81dEZJJRfeZoNCkp8fhafJTiDM+yMiPxIi/5i7IyAVwcn+UecWOewOJPEdUW55G5ZVyrDJc4cYZssD484kUtqBcZdms59mRjUjPax2bWz8f1BfS63J8oq5n1hDhsQmVygG/OK3FnAeLWBLxnGlTr/K76fPyfYuwcjmyrrLszyy/kPWeQS5VxbKeto+NHeybOTi+KKlvUmLVjjdXRRIcJhphAScSpsvDps0/Z/m+2yR4K6QRpabcS2sjUTh+Rk2hP2VdpI+yMMhvGZH4+BKJPn4rMiIkl5dKcUhbhIbd8TNtzpXREfaVGRkQDdX0oySREXRmpXmg0pV30tSHENl0XXayJwjIiP576IB2AAAAAAAAAAAAAAAAAAAAAAAAAAAAAAAAAAAAVO+qLvHPq/XFNxa46MUuc8ieReR0GE2OslxVzrZzj1eXETHuQWVMLfkQseopuJazu7HIIb93bxFTDjLcrqqyUSmyCevHvRuG8bdI6t0LgS7d7CtQ4LSYFi795KTNtl0dDFbiQSsJpMRylyjabI5LxR2kSF9KcZ+EJQG2V2sJuazWuToTVlIYelsVzj7aJj0OOaUvSm2DX7qo6FONk5IS2plpxRMLX7ii6DUWjqzeFJhk+JyCyfX2W505mGXv1txregtMYx9jBpN3Kfwuofrrh9+Qq4ocY+r4d7YJlfR7SyjS5EeNGQpLKA3b7SCPyIjI+iLvsz6Ik+JePl34dF+ZHiRmZmrszPsMgAAAAAAAAAAAPm8pw/GM4xq9w7L6OtyTFcmqp9HkGP3MRmfU29RaR3IljXTYchC2XIsyK66w+0SUkpDiuvFXSiD/NF9R7/wBKZzbwjdknOeMUHDtx6+3TurKnI2D6tx+TjkbRGE2tyxY0D+SxbyRBh2FXVQLN+McbHmbVaGqaQXn5Oo6D+tD0H/RTV6SWuNnRtl5Fq/bW6M+ycpMLauGYxb0tvW4Gqspi/AeTMvllKcipv4D9gTaFIaN1aFfcfwH9BwAAAK4/VK0niG5+GOz5+UuWrTmhkReT+GJq5f0JtzY3HpmbsDB49mXtOrm0rOQU0c7KtZVGbnR1utpeYdUmS2G8OEe3sp5B8RuOW8M5arGsw2xqLBc8yVmnjnEq0XeQUsaxnKgwjdfTEipfcMo7XuvLQ2lKXHXVpJQCVgAAAADCt1SOj6SZH49/PRF5eRJ6WfRLU4skNpQlPl5LI/tF0QCt7lJylzuzz2NxF4jR6/J+SOTwWpmVZjKjfWeE8a8IsVvpTsXY8dqRFet2Z0iDKoamhxqdKyBq6m1z1jVx68lvOhILi9xZwHi9hs6jxdU2+zPLZ0XINp7SyR9Flnu1MuYQ5H/CTM8kUxHnX06urFopaqTPJbsWljxa81uNtF2EnzYbUpKlJ7UhaVkozMleSCUlBqUXSl+KVKSRKNRGRmZkaj7AUy84eUfMHjlzu4Ca+wzItPO8aOXW17XSF9jtzh13M2bSZXT64y3O38jayf60ao2qdz6riMlFTDdkNRWpC3XVGnzSFdOFepR6jmO5f6gFDtHbHEzLXeNuxI3GbQmL4HrbMoN1uPk5svDY+a6epqqzl3cujXXS2/pWNzqyzlUyXLlhUhuyjx2XI6gv/wCGSOVZcesHseZ1vrq139cR13mUtauxu2xXG6CPfMQp1fhz1ZdTJa3chxtUl6kuZaZJ18uzjLkxEx4/UYBLcAAAAAAAAAAAAAAAAAAAAAAAAAAAAAAAAAAfEZ/sXDdV4Xkmxtj5HT4ZgeH08m/ynK8hmJrKWgpoZIXLsrWbIImIcOI0pS5LzriVoJBmTJl8EFUfph4ZnO1Mr5A8/wDcGJ3Outl8mckg4pTa1kwVfgzS6v1BOucX13sTDJ1of16qPuDB3K7J7Cc+pEPzkpbq3JDBtNEE+OSXKfW/GLHaGzzH60yDLs2ufwc1prDD2WLbYuzr1BMyZtRgeOPS4r2QTqumXIv7VuGpZQ6mBPkqNRxjSsPtU6j1pe7OxjkFMw5tG1qXBZOF0eUy3Z7VzT4fk06Je2uOyYBSk15GqxjNvypMqJInNGp5piW02fikNwky2R9kkv0GXSejLpZGky666M1rUo/ylKP5M0kSSDKAAAAAAAAAAAAAAMZNIIiIi6SRKJJESU+PkZmo0mkkqSZ9mRmky/T9/ZmAmkkZH2fZfcf2S6LySvx6IiIy7L7zI1fKvtdn2AyAAAA1RufWsHc+odn6gsbCbT1e0Nf5jgFncVqWXp9XW5hRTqWVYQGZBLZektsTnVxycadR76Ue4242lRKCvH0d9nT8s4p3mp5VZBiVnETdewuHeNWUd55yyy3FtFHR43T5hfRySceHkF8qU45ZwoC2a+CtKPBtoiUlQWygAAA6ynzT5GrwIkN+ai7L4I+unCcUpDami+12pRtn9n7iMyIBXLyi5P59ZZ4/xG4iw63KuRV1ChL2Bk092S3iXHjC7yKiVJyrLbKAcqTTZ/ZY9Ol3Go6efVS6y+ySnjQLdTEWR5EEgOL/ABgwvi9r78FaOVOzDLbyc7k+ztqZCyynMNp53aNtIyXO8pZYSVZBt7hTSHJNbSR4la2aEtRYLDXbZBKA0Efz89mXR9n32n86eldkRK/P0RGf6QHMBXj6kHE295S6HdPU7GPVPKTVlinLOMmy7yY9CLVefWimMeyTJIUhCJDCHbLAp+TUD/06vmp+i2LxtJaf9t1AQwwP0gMD1bys0nf6/wBea6x3ihV4a7tbdmtGbi9nzc45s47aUrOtN0MRLJ2XKelYpj7mSR25DdrXUyTsHjLHkmbCWwvX9lBGR9q+EpT8GReRISaUkroiNSU+SzJtRm35LUo0GoyMgzAAAAAAAAAAAAAAAAAAAAAAAAAAAAAAAAAMXmvsvglJPyL4I+yURoQSTMz6+Fe4ajIj6Skv0GagpV5iWLvLXnFxs4W49MeZ1/qeXG5TbozSgf8Awixewna/upOPnxm2dV1zyKyoXltLclk663JJjK5MWJF8qOwjKVLAW9Xy52P4fcng2OQrG7pMYsHMPw9uVGx+ts7GBVOfg/Q+4RMM00WXJYrqkpT0YmadD7bqUEwwvsPjsHrrPPcO1nl+6tYYjjW1qutiZFJx1UipzhrWuZWlW5Gv4GK5e/WsrVIiNvvwpl7VRoRzorr0U/OO442Ybh9lHwX2vjyMu1GZ9rSaVGZn2auyP/mNXz1+YiIgygAAAAAAAAAAAAAAAAAAAAADEbKDMjP7XSvLpRJX9rzJwjI1JNReJl0kkqIkkfwXkRKIKQ/TtskccObfOD08ktqyUodk9z2RsQ3DrlJPk/mEmK9r1ugQt9pqLiDuL+S7tp5pq7XOSaKxn2HSAXggADD5rIiPx8j+OzR4mnovyzI1rb6L8xGZfH/3dgK4OTvKDPLXP4XEjiNJr7bkRlNdJnZZsEmGrnCOOOL/AEwq+4yvLpL7L2LWefUrsmBYVGn7yxqsnyermN2EKIxBL6WYb/4s8W8A4v6/LFMXTOucluJ0zJM9zzI5sy6yvMcrvZb9rkNhMt7ZT1uzRP3su0eoMcXLdqsfqHG6qpjxobLbSAlCTLafDxQSfAukEkiJKCPvs0IIvBKj7MjUlJKMjMu+gGUAAYvaT2Z9q+fAuyV4q+x2RdrSROK7JRkfmtX6S6MzMw/PZT10SnC7IiPpZ/KS8eyV32SlLJPSnFEbvSleLiT6MgzAAAAAAAAAAAAAAAAAAAAAAAAAAAAAAAAAACGfPPkzV8TOLez9wzqS5ySXW1UWlo8fx6REh5HYW+WWVdi8SVUpnmhMh+ndvG7l+Oyy4843CfaJLRkbqA+H9PLji3xg0DiOJ51f4vnHInN6/wDDrem06+M5EyfcWVPS5LNZmeSnZGWQWs2nxeZj2MfWc5qQdezUlAJ5JF0oJR4rqhGNbP2Vsr8Oc+vFbFj4vHXhF7kC7HBsOPGa9+vQ9hlC5HQmmdum3zfviTKksTZTTLzDUX2/FQbdJsiMjJSvhKkl9x/CjLrozLtPj10kkmkjL8olGSTIMgAAAAAAAAAAAAAAAAAAAAAAAACjTYUdPE71lsJ3jkDjeXVXqR6qwziZguPY8lUax17kPHuLmO1JubZe7LWmJYY7c113HoqlmlZk2cWwbdkyCdj+202F5YDrqdcT8n4ER+KUpMlF2tSzJHkszImycLxQlBoUpLjiezV0ZGFb/KLlFm91nsfiDxGbg5LyOySEzKzzNZDCrPDONeCWJvqj5/n8Rl+M/ctXz9bZYzQUOMz5d1EyF2vk3MNiuS4t4JEcYeLmveLmFy8fxIp13mGWzWMg2js7InysM72rmTbf0V3K84v0x4z15aRKxMWlrpUxklxqWvgwEkpDbnuBJs2UGolH35JMjI+y7JSSUlKjV15KNKVqSRLNSTIzMyMzMwGUAAAAAAAAAAAAAAAAAAAAAAAAAAAAAAAAAAAAAAAHS+kr6L7BEfvJbNJmlJn5F2kk+64yRqUX2VeBuG08S2Uof9tSwFAFBseVyS5YcgeZGQYZme8+LvDq6iaT0hpSkqEWGwsQ5YYdlhYltzYWL4pHkVyrenvcWyelRUvXNo/Fhx6qbO+pos8m5bIXWp1NrW82bju/ZeKJTtSpwSVgVLk0x+xZsanCb+yYurDG3KlM0qhxuXaMplPyZMB2xQ55tsTGWDJog254F8fKj8fyftH8fHX3l0Z/H/uMwHMAAAAAAAAAAAAAAAAAAAAAAAAAAUp+rZXv61zfgjzev1Id1Jwo3fleZbYrICSlZVOrNrYpC1Xj6MWr3ybatJDGQW7D1o67Iiuwatx6chX2U+AXM1tkiygw7FpPUadGZlsn2lZk1Jjsvsn5srdbUk0uKM3FLaIiJP2CLtRhXZyi5QbFus9e4i8Q4UDJ+QlxDiFsHMpj77WIceMOuWUt2GRZJbwEy0VWz38emysj1JQ3EORT5Ld0pQbH6PHStxYSF4wcYcK4v69bxDG35eUZTdTXcl2RsvIGW0Zbs3ObUo55Nm+RqaT9DiWVzIR9Kfp6puvpo7rjzcGuixlJZQEnjbIzM+z7PolfPfaS+9PSuyIj/P4kk/8AqQDmAAAAAAAAAAAAAAAAAAAAAAAAAAAAAAAAAAAAAAAAApv9V7fG8YmLYLw94epjWvMLkYiyucbw65mQsXpsn0Rgspk+QcBjZFu4xV4Pkj+DXL0ChvkOs2cSfMamY8pMplPiEn/T10NsfjpxvxvANnnSR8kVZWV+zjVM3ElzMIqrdmqXDwvJcwr0uPbUyKlXDlJttpXiiyDK1LQuWk1JIwE6/Fv9J/Jko+zUZmZdGkzUfavsmX2elERf9gGTzT+n9x/6AHmn9P7j/wBADzT+n9x/6AHmn9P7j/0APNP6f3H/AKAHmn9P7j/0APNP6f3H/oAeaf0/uP8A0APNP6f3H/oAeaf0/uP/AEAPNP6f3H/oAeaf0/uP/QA80/p/cf8AoAeaf0/uP/QA80/p/cf+gB5p/T+4/wDQA80/p/cf+gB5p/T+4/8AQA80/p/cf+gB5p/T+4/9ADzT+n9x/wCgCs31dtH5/wAhuAm7tZa0g11nlkxWE5I1EtrJmohFT4HnmOZjkcpyVMRJaUcSmpZ8lqOlJKnGlqCv3UKNtwNHQvURTyy11prXHp13X4V7H3HgLd7M21b0q3sZ484hAem4nd5lmFdasO0s7YNJawWZNfqC4lxMmvKySVjFgNwj+lEFgPFzi7gHF3XqcRxVEy4yG3ly8h2BnuRzJd3l+b5VZuuzbmwtL22XIu10yriTZPY9RyZsmDRVTiKytQ1ESbZhJ8mWyJRJLxSrvtCSJKPtfKjNBESFGr86lJUr9BkAygAAAAAAAAAAAAAAAAAAAAAAAAAAAAAAAAAAAAAAAAACoflD6Q+tOUvJeq5X3PJzlxrfZmNUM3GsJRqPbbWKU2DVFtAj199GxJhVPLeqSyRuJFdviblOJsH2EKWgmyNsw+L/ABMzPiaVeo36lK0dqUlDnI5TiEuLbS2tzxXj6iccUlJmTjxOqbUpXsm2RkRA/Ezs/rHPUq/aPV/AAD8TOz+sc9Sr9o9X8AAPxM7P6xz1Kv2j1fwAA/Ezs/rHPUq/aPV/AAD8TOz+sc9Sr9o9X8AAPxM7P6xz1Kv2j1fwAA/Ezs/rHPUq/aPV/AAD8TOz+sc9Sr9o9X8AAPxM7P6xz1Kv2j1fwAA/Ezs/rHPUq/aPV/AAD8TOz+sc9Sr9o9X8AAPxM7P6xz1Kv2j1fwAA/Ezs/rHPUq/aPV/AAD8TOz+sc9Sr9o9X8AAPxM7P6xz1Kv2j1fwAA/Ezs/rHPUq/aPV/AAD8TOz+sc9Sr9o9X8AAPxM7P6xz1Kv2j1fwAA/Ezs/rHPUq/aPV/AAD8TOz+sc9Sr9o9X8AAPxM7P6xz1Kv2j1fwAA/Ezs/rHPUq/aPV/AAHVsPRZrbavnVVl6ifqSTq2yivw50KVyMN5iTGkEfuMupXj5mbfkpajQRkhz3FoeS40ZNkE5OD3A/jz6fukajRvHrE00lDCJmXkGSy0Rvwyzq6jrkezkGZ20GJXKu7pEWR9XJmKYjl9WssQvaNlCkqCZvsp7JXavIjMyV2Xl5dKSkzUZdq8ErUlJLNSejPyJR/IDKAAAAAAAAAAAAAAAAAAAAAAAAAAAAAAAAAAAAAAAAAAADh7ae1H9o/L7yUpSkl/8AilRmkv8Awn93wA5gAAAAAAAAAAAAADwri/rqCrtby6mxKunpIE60tZ8t0m49fV10RyfOsZrrpslHiw4bEmVIM0rNEdn3S8vNKAHg692Vg+2cLxnY2tMroc4wPMqqNe4tlmNTmrWiyCmme77FjWTo6zQ9CWaC8ZZJNtR+REnsy8Q+7AAAAAAAAAAAAAAHAmyLr7SjIj8iJSvLr/p5K7V1/wBDUf6Pu+AHMAAAAAAAAAAAAAAAAAAAAAAAAAAAAAAAAAAAAAAAAAAAAAAAAAAAAAAAAAAAABCX1EdF4byC4X8idd51Y5pAoVauy/J1SMHzK9wa8VY4hjlhf1bSrzG5UGwXAen1sYrKEp5TNhFN2G+Rx3DQQR59DVsj9Ij0++1OK97jdg3uEtxbqTImJZmlKHVLQ2hX5KkNpQnx+CIui6C2AAAAAAAAAAAAAAAAAAAAAAAAAAAAAAAAAAAAAAAAAAAAAAAAAAAAAAAAAAAAAAAAAAAAAAAAAAAAABDrnjluy8Y4m7rc1HpHMuQWe5JgeRYVS6xwWwoarIbJzMqadjy7NiwyOdBpURaJNmiznIXMNcmPHdjxzS6ZLSESvRFrd6699O3j3onkRx4z7jrsPj/hlVqqXS57PxqwezJjG69l1/M6JeM2tqxBo5j9gUSMxcPQ5/ux3zUyZF0QW9AAAAAAAAAAAAAAAAAAAAAAAAAAAAAAAAAAAAAAAAAAAAAAAAAAAAAAAAAAAAAAAAAAAAAAAAAAAAAMRsoM+z7P7RKIy6QZGS0udEpskL8VOJ81pNRpWalJURoPxIPz6O38l19kz8vb6SbZK8ycJRINJpJZOl7vude4bhmo1H0REGYAAAAAAAAAAAAAAAAAAAAAAAAAAAAAAAAAAAAAAAAAAAAAAAAAAAAAAAAAAAAAAAAAAAAAAAAAAAAAAAAAAAAAAAAAAAAAAAAAAAAAAAAAAAAAAAAAAAAAAAAAAAAAAAAAAAAAAAAAAAAAAAAAAAAAAAAAAAAAAAAAAAAAAAAAAAAAAAAAAAAAAAAAAAAAAAAAAAAAAAAAAAAB/9k=;" vertex="1" parent="7">
                    <mxGeometry x="490" y="89.5" width="320" height="227.33" as="geometry"/>
                </mxCell>
            </root>
        </mxGraphModel>
    </diagram>
</mxfile>